<?xml version="1.0" standalone="no"?>
<!DOCTYPE svg PUBLIC "-//W3C//DTD SVG 20010904//EN"
 "http://www.w3.org/TR/2001/REC-SVG-20010904/DTD/svg10.dtd">
<svg version="1.0" xmlns="http://www.w3.org/2000/svg"
 width="400.000000pt" height="400.000000pt" viewBox="0 0 400.000000 400.000000"
 preserveAspectRatio="xMidYMid meet">
<metadata>
Created by potrace 1.14, written by Peter Selinger 2001-2017
</metadata>
<g transform="translate(0.000000,400.000000) scale(0.100000,-0.100000)"
fill="#000000" stroke="none">
<path d="M385 3986 c-130 -32 -273 -144 -328 -256 -60 -126 -57 -28 -56 -1734
0 -1699 -3 -1607 57 -1726 35 -71 142 -177 212 -212 123 -61 28 -58 1730 -58
1702 0 1605 -3 1730 58 72 35 177 141 214 215 58 117 56 38 55 1732 0 1698 3
1606 -57 1725 -36 73 -144 180 -215 214 -123 58 -28 55 -1727 54 -1193 0
-1577 -3 -1615 -12z"/>
</g>
</svg>
